<mxfile host="app.diagrams.net" agent="Mozilla/5.0 (Macintosh; Intel Mac OS X 10_15_7) AppleWebKit/537.36 (KHTML, like Gecko) Chrome/139.0.0.0 Safari/537.36" version="27.1.6">
  <diagram name="第 1 页" id="CVOTVLWYAjomwm8Qlh1c">
    <mxGraphModel dx="1216" dy="813" grid="1" gridSize="10" guides="1" tooltips="1" connect="1" arrows="1" fold="1" page="1" pageScale="1" pageWidth="827" pageHeight="1169" math="0" shadow="0">
      <root>
        <mxCell id="0" />
        <mxCell id="1" parent="0" />
        <mxCell id="Pqzd3gjiMFRE1YsTW1qv-1" value="" style="whiteSpace=wrap;html=1;aspect=fixed;" vertex="1" parent="1">
          <mxGeometry x="100" y="220" width="250" height="250" as="geometry" />
        </mxCell>
        <mxCell id="Pqzd3gjiMFRE1YsTW1qv-2" value="客户关系智能体" style="rounded=0;whiteSpace=wrap;html=1;" vertex="1" parent="1">
          <mxGeometry x="130" y="240" width="190" height="60" as="geometry" />
        </mxCell>
        <mxCell id="Pqzd3gjiMFRE1YsTW1qv-3" value="人事智能体" style="rounded=0;whiteSpace=wrap;html=1;" vertex="1" parent="1">
          <mxGeometry x="130" y="320" width="190" height="60" as="geometry" />
        </mxCell>
        <mxCell id="Pqzd3gjiMFRE1YsTW1qv-5" value="供应链智能体" style="rounded=0;whiteSpace=wrap;html=1;align=center;" vertex="1" parent="1">
          <mxGeometry x="130" y="400" width="190" height="60" as="geometry" />
        </mxCell>
        <mxCell id="Pqzd3gjiMFRE1YsTW1qv-6" value="" style="rounded=0;whiteSpace=wrap;html=1;" vertex="1" parent="1">
          <mxGeometry x="190" y="80" width="70" height="30" as="geometry" />
        </mxCell>
      </root>
    </mxGraphModel>
  </diagram>
</mxfile>
